<svg version="1" xmlns="http://www.w3.org/2000/svg" width="5556" height="5556" viewBox="0 0 4167.000000 4167.000000"><path d="M809 1223.6c-3 .8-7.4 2.6-9.8 4-8.8 5.2-1.5-3.4-105.7 123.4-21.9 26.7-53.2 64.7-69.5 84.5-16.3 19.8-63.1 76.7-104 126.5s-147.3 179.1-236.4 287.5c-89.1 108.3-163.9 199.5-166.3 202.6-10.7 13.7-12.3 33.2-4.1 49.3 2.7 5.2 11 13.9 16.2 17 2.2 1.3 6.4 3.2 9.1 4.2 4.8 1.8 11.6 1.9 147.2 2.4l142.1.5 4.4 3c2.3 1.7 5.4 5.1 6.8 7.5l2.5 4.5.5 381 .5 381 2.3 5.7c3.5 8.6 8.1 14.7 15 20 15.3 11.7 37.8 12 53.3.9 8-5.7 676.6-818.6 682.3-829.6 3.6-6.8 4-8.4 4.4-16.6.6-11.2-1.5-19.5-6.8-27.7-6.8-10.6-18.3-18.1-31-20.1-4.3-.7-52.3-1.1-142.8-1.1-136.1 0-136.3 0-140.4-2.1-4.9-2.5-8.5-6.2-10.7-10.9-1.5-3.2-1.6-36.3-2.1-384.5l-.5-381-3.2-6.8c-3.8-8-12.2-17.3-19.1-21-10.1-5.5-23.1-7.1-34.2-4.1zm-36.8 190.3l3.3 2.9.5 336.4.5 336.3 2.3 5.7c5 12.4 14.6 22 26.9 27l5.8 2.3 115.7.5 115.6.5 2.5 2.3c3.1 2.9 4 6.2 2.8 9.6-.6 1.3-11.5 15.2-24.3 30.8-12.9 15.6-40.2 48.8-60.8 73.8-20.5 25-50.7 61.7-67 81.5-81.3 98.8-222.5 270.6-280.3 341-35.7 43.4-66 80-67.3 81.2-2.7 2.5-8.1 3.1-11.5 1.3-1-.6-2.6-2.4-3.4-4-1.3-2.6-1.5-40.9-1.5-336.4 0-323.8-.1-333.6-1.9-339.5-2.6-8.4-6-13.7-12.5-19.9-6.6-6.3-15.6-10.7-24.6-12.1-4.2-.7-45.7-1.1-117.3-1.1H264.9l-2.4-2.5c-4.2-4.1-3.5-9.2 2.2-16.2 39.9-49.2 490.7-597 493.9-600.1 5.3-5.2 8.9-5.6 13.6-1.3zM1343.9 1865.7c-7 2.3-14 8.1-17.4 14.3l-3 5.5v407l2.7 5c4.9 9.4 12.8 14.8 23.9 16.6 16.2 2.6 30.2-3.9 36.6-16.8 2.5-5.2 2.8-7 3.1-18.6l.4-12.8 3.4 4.9c20 29.8 59 47 101.5 44.9 35.4-1.8 65-15.1 88.5-40 35.9-37.9 50.5-100.6 38.4-165-7.5-39.5-29.1-74.2-59-94.4-12.1-8.2-30.8-15.8-46.8-19-13.1-2.6-43.3-2.4-56.3.4-25.7 5.6-48.6 19.5-62.9 38.5l-6.5 8.6-.5-79.6-.5-79.7-2.3-4.7c-3.2-6.4-10.7-13-17.2-15.1-6.6-2.1-19.8-2.1-26.1 0zm155.1 187.2c30.5 9 49.8 33.7 56.6 72.6 2.1 12.1 2.4 43 .5 55-6.6 42.8-27.3 69.8-60.1 78.7-11.8 3.1-33.6 3.1-45.5-.1-26-6.9-44.2-24.9-53.4-52.6-5.2-15.8-6.5-25.7-6.5-50-.1-25 1-33.7 6-49.6 7.7-24.7 23.8-43.4 44.2-51.4 11.8-4.5 18.3-5.5 35.2-5.1 12.2.3 17.1.8 23 2.5zM2573.9 1867.9c-10.2 3.3-17.3 9.8-21.5 19.6-2.5 5.7-2.5 20.3-.1 27.3 2.5 7 10.2 15.3 17.5 18.9 5.4 2.7 6.4 2.8 19.7 2.8 13.4 0 14.2-.1 19.9-2.9 3.2-1.6 7.7-4.7 9.8-6.8 2.2-2.2 5.2-6.5 6.7-9.7 2.3-4.9 2.6-6.9 2.6-15.6s-.3-10.7-2.6-15.6c-3.5-7.3-8.7-12.5-16.8-16.3-6-2.8-7.6-3.1-18.1-3.3-9-.2-12.7.1-17.1 1.6zM3366 1866.9c-7.7 2.4-14.7 8-18.3 14.6l-2.2 4-.3 202c-.2 222.3-.7 206.8 5.8 214.7 1.7 2.1 5.9 5.1 9.5 6.9 5.5 2.7 7.6 3.2 14.7 3.3 14.9.2 24.3-4.6 29.4-15.1l2.9-5.8.5-62.2.5-62.1 79 69.9c55.2 48.8 80.6 70.7 84.5 72.6 4.4 2.2 6.7 2.7 12.5 2.7 11.2 0 19.2-5.2 24.4-15.6 5.2-10.4 4.2-22.4-2.8-31.2-2-2.5-31.3-29-65.1-58.8-33.8-29.8-61.5-54.5-61.5-54.8 0-.4 25-23.5 55.5-51.4s56.6-52 57.8-53.4c6.4-7.3 8.9-18.8 6.1-28.2-3.3-11-15.6-20-27.4-20-11.7 0-11.2-.4-91 74.3L3408 2141l-.2-127.2-.3-127.3-2.3-4.7c-3.1-6.2-9.8-12-16.3-14.1-5.3-1.8-18.3-2.2-22.9-.8zM1838.4 1996.1c-31.3 2.4-57.5 16.2-75.4 39.6l-4.7 6.2-.5-11.2c-.8-16.7-4.9-24.5-16.3-30.5-4.5-2.5-6-2.7-16-2.7-9.7 0-11.5.3-15.5 2.4-7.3 3.8-11.4 7.6-14.6 13.3l-2.9 5.3-.3 135.9c-.3 151.9-.7 141.3 6.9 150 2.2 2.5 6.5 5.7 9.7 7.3 5.2 2.5 6.7 2.8 16.7 2.8 9.2 0 11.8-.4 15.6-2.1 6.6-3.1 12.3-8.6 15-14.7l2.4-5.2.5-88 .6-88 2.6-9.5c4.8-17.6 10.9-28.1 22.2-38.8 12.1-11.3 28.6-17.2 47.9-17.2 27.8 0 44.2 12.2 50.7 37.6 3.6 14 4 25.5 4 115 0 84.7.1 87.5 2 92.6 2.4 6.5 8.5 12.8 15.5 16 4.3 2 6.6 2.3 16 2.2 9 0 11.9-.4 15.7-2.1 6.6-3 12.2-8.5 14.9-14.6l2.4-5.2.6-88c.6-94.2.5-91.4 5.7-106.5 7.6-21.7 22.5-37 42.7-43.7 7.1-2.4 9.6-2.7 22.5-2.7 9.6-.1 16.2.4 19.5 1.3 15.2 4.3 25 13.3 30.6 28.2 5.3 13.9 5.2 11.4 5.8 114.9l.6 96.5 2.4 5.2c2.7 6.1 8.4 11.6 15 14.7 3.8 1.7 6.5 2.1 15.6 2.1 13.3 0 19-2.1 25.8-9.4 8.3-8.9 7.8-1.9 7.4-114.2-.4-106.3-.3-103.2-5.5-123.5-7.9-30.1-26-52.8-50.8-63.3-14.1-6-27.3-8.2-47.9-8.2-17.2 0-29.9 2-43.4 7-21.7 8-41 22.7-52.9 40.5l-5.1 7.6-2-4.5c-3.1-7.1-10.8-18.4-16.9-24.7-13.7-14.4-35.2-23.8-57.7-25.3-4.4-.3-10-.7-12.5-.9-2.5-.2-9 0-14.6.5zM2222.1 1998c-9.8 2.1-19 8.5-23.9 16.9-2.3 4-2.7 5.7-2.7 12.6l.1 8 61.1 129.7 61.2 129.8-22.7 48.2-22.7 48.3v8c0 6.9.4 8.6 2.7 12.7 5.6 9.4 15.9 15.1 27.8 15.2 13.1.1 21.8-5.7 28.4-19 1.9-3.9 42.3-89.4 89.7-190l86.3-182.9v-8c.1-6.6-.3-8.8-2.4-12.8-5.3-10.5-16.5-17-29-17.1-12.3 0-21.6 5.6-26.9 16.3-1.5 3.1-23.6 52.1-49.1 108.9-25.5 56.8-46.7 102.9-47 102.5-.4-.5-22.3-48.7-48.6-107.2-52.3-116.3-50.9-113.5-61.3-118-5.9-2.5-14.8-3.4-21-2.1zM2806.5 1999.6c-24.7 3.3-50.6 10.8-70 20.4-14.4 7-22.7 13.5-26.9 21-2.8 4.9-3.1 6.4-3 13.5 0 6.2.5 8.9 2.1 12 4 7.5 8.8 11.1 16.5 12.1 4.6.6 14.5-2.5 22.3-7 12.1-7.1 47.3-19.5 62.4-22 5.6-1 15.4-1.6 24.1-1.6 16.2 0 25.7 1.8 35.3 6.5 10.9 5.4 19.4 16.9 23.1 31 2.1 7.9 3.8 26.8 3.4 37.5l-.3 8.5-31.5.6c-45.9 1-74.9 3.7-98.5 9.4-36.7 8.7-57.2 25.6-64.7 53.2-3.1 11.4-3.1 36.4 0 47.8 10.2 37.1 40.7 62.7 83.6 70.1 6.9 1.2 13.2 1.5 26.1 1.1 19.8-.6 29.8-2.8 43.7-9.8 16.2-8 27.5-18.5 36.8-33.9l4.8-7.9.4 15.2c.5 17.6 1.9 21.8 9.3 28.6 5.9 5.5 13.2 7.5 24.2 6.8 6.7-.4 9.2-1 13.5-3.4 6.5-3.6 11.2-10.2 12.8-17.7.8-3.9 1-32.5.7-100.3-.4-91.5-.4-95.2-2.5-105.8-9.8-51.2-37.9-78.4-88.5-85.9-13-2-45-2-59.2 0zm88.9 181.9c-.3 29.3-7.1 47.3-24.3 64.5-9.9 9.8-20.2 15.7-33.5 19-9.7 2.4-27.1 2.7-36.4.5-18.3-4.3-33.2-17.8-38.3-34.7-1.8-5.8-2.1-8.8-1.7-17.3.4-9.1.9-11.2 3.7-16.9 7.3-14.8 22.4-22 55.9-26.2 11-1.4 55.1-3.3 69.7-3l5 .1-.1 14zM3155.5 1998.7c-65.2 8.4-112.9 53.7-125.5 118.9-7.3 38-3.7 80.1 9.5 111.5 18.3 43.4 53 72 99.8 82.1 14.1 3 52.8 3.3 68.2.4 22.9-4.2 47.2-13.7 63-24.7 8.9-6.1 12.9-10.4 16.1-17.3 3.2-6.8 3.3-18 .3-24.6-4-8.9-8.7-12-18.2-12-5.3 0-7.6.6-14.3 3.8-4.3 2.2-10.4 5.5-13.4 7.4-22 14.1-46 21-67 19.3-44.5-3.5-70.7-28.5-79.6-76-2.6-13.9-2.7-47.9-.1-61 8.6-43.3 29.6-67.8 65.3-76.1 11.5-2.7 33.9-2.5 44.9.5 10 2.6 23.4 9.1 39.1 18.7 16.6 10.2 23.4 12.2 31.1 9.3 11.1-4.2 16.5-21.3 11.2-35.4-2.9-7.8-13.2-18.2-24.1-24.3-16.1-9.1-38.7-16.7-58.8-19.7-8.7-1.4-39.4-1.9-47.5-.8zM3753.5 1998.7c-16.4 2.1-33.6 7.2-46.9 14.1-27 13.9-44.4 35.1-49.7 60.7-6.9 32.9 4.4 62.5 30.1 79.1 18.8 12.1 37.8 18.7 82.5 28.9 38.6 8.8 57.5 17.5 62.9 29 6.1 12.9 3.2 28.8-7.2 39.1-12.3 12.1-36.9 17.8-66.4 15.4-23.4-1.8-35.9-5.9-67.7-21.8-18.8-9.4-19.6-9.7-26.1-9.7-6.1 0-7.2.3-10.7 3.1-2.1 1.7-4.9 5.1-6.3 7.5-2.1 3.7-2.5 5.7-2.5 12.9 0 14 4.3 20.8 19.4 30.7 16.6 11 38.1 19 62.7 23.5 11.5 2 16 2.3 40.9 2.3 32.1 0 40-1 60-7.6 45-14.9 68.2-45.4 66.2-86.9-1-20.1-6-33.8-16.6-45.3-16.1-17.4-40.5-27.7-93.8-39.7-43-9.7-59.5-17.5-66.3-31.5-2.1-4.2-2.5-6.5-2.5-14 0-8.2.3-9.7 3.3-15.7 5.4-11.1 16.3-19.1 31.7-23.3 8.3-2.2 28-3 39-1.6 15.7 2.1 29.8 7.7 53.5 21.4 19.8 11.4 28.1 12.4 36.9 4.3 5.1-4.7 7.1-9.9 7.1-18.6 0-6.2-.5-8.5-2.9-13.5-8.9-18.8-42.6-36.2-80.9-42-8.9-1.4-41.3-1.9-49.7-.8zM2579 1999.9c-7.7 2.4-14.7 8-18.3 14.6l-2.2 4-.6 156.5c-.4 109-.9 157.9-1.6 161-5.3 21.4-14.5 31.7-32.6 36.6-2.8.8-12.9 2.1-22.3 2.9-22.8 2-29.3 4.4-33.4 12.6-4.8 9.3-3.4 20.6 3.5 27.4 7.6 7.6 17.9 9.5 42.6 7.6 26.2-2 41-5.3 55.7-12.1 28.4-13.3 43.8-35.7 49.4-72 1-6.8 1.3-40.5 1.3-164v-155.5l-2.3-4.7c-3.1-6.2-9.8-12-16.3-14.1-5.3-1.8-18.3-2.2-22.9-.8z"/></svg>